<?xml version="1.0" encoding="utf-8"?>
<!-- Generator: Adobe Illustrator 22.1.0, SVG Export Plug-In . SVG Version: 6.00 Build 0)  -->
<svg version="1.1" id="Layer_1" xmlns="http://www.w3.org/2000/svg" xmlns:xlink="http://www.w3.org/1999/xlink" x="0px" y="0px"
	 viewBox="0 0 1400 980" style="enable-background:new 0 0 1400 980;" xml:space="preserve">
<style type="text/css">
	.st0{fill:#051F38;}
	.st1{fill:#666666;}
	.st2{fill:#333333;}
	.st3{fill:#CCCCCC;}
	.st4{fill:#33CC66;}
	.st5{fill:#2EC260;}
	.st6{fill:#3DBF69;}
	.st7{fill:#32B55E;}
	.st8{fill:#B3B3B3;}
</style>
<g>
	<rect id="XMLID_257_" class="st0" width="1400" height="980"/>
	<path id="XMLID_254_" class="st1" d="M0,828.3v9.7v20.6h1400V838v-9.7v-423v-15.1v-15.1c-188.9,42.4-433.1,68-700,68
		c-266.8,0-511.1-25.6-700-68v15.1V828.3z"/>
	<g>
		<path id="XMLID_252_" class="st2" d="M276.6,853.5L152,417c-10.8-1.8-21.4-3.6-31.9-5.5l126.1,442H276.6z"/>
		<path id="XMLID_251_" class="st2" d="M1264.5,417.1l-123.9,434h30.4l125.4-439.4C1285.9,413.6,1275.2,415.4,1264.5,417.1z"/>
	</g>
	<path id="XMLID_250_" class="st2" d="M0,619.1c200.4,33.8,441.1,53.6,700,53.6s499.5-19.7,700-53.6v-30.4
		c-198.8,32.1-440,51-700,51s-501.2-18.8-700-51v25.6V619.1z"/>
	<path id="XMLID_249_" class="st2" d="M0,416.5c191.5,44.3,435,70.8,700,70.8s508.5-26.5,700-70.8v-30.2
		c-188.9,42.4-433.1,68-700,68c-266.8,0-511.1-25.6-700-68v3.9V416.5z"/>
	<path id="XMLID_262_" class="st3" d="M1400,405.3v-30.2c-188.9,42.4-433.1,68-700,68c-266.8,0-511.1-25.6-700-68v30.2
		c36.9,8.5,75.8,16.4,116.4,23.6l48.4,169.5C107.2,591.9,52.2,584.4,0,576v30.4c55.1,9.3,113.3,17.5,174,24.6l56.4,197.5H0v30.4
		h1400v-30.4h-231.1l56.3-197.4c61-7.1,119.4-15.3,174.8-24.7V576c-52.4,8.5-107.7,16-165.5,22.5l48.4-169.4
		C1323.7,421.8,1362.8,413.9,1400,405.3z M1138.5,828.3H260.8l-55.4-194c151.9,16.4,319.1,25.5,494.6,25.5
		c175.3,0,342.1-9,493.9-25.4L1138.5,828.3z M1203.2,601.8c-153.6,16.1-323.9,25-503.2,25c-179.5,0-350.1-9-503.9-25.1l-47.8-167.4
		c162.7,26.6,351,41.8,551.7,41.8c200.4,0,388.4-15.2,551-41.7L1203.2,601.8z"/>
	<rect id="XMLID_245_" y="858.7" class="st4" width="1400" height="121.3"/>
	<rect id="XMLID_244_" y="858.7" class="st5" width="1400" height="18.7"/>
	<polygon id="XMLID_259_" class="st6" points="0,980 25.8,980 234.6,858.7 121.3,858.7 0,883.4 	"/>
	<polygon id="XMLID_264_" class="st6" points="801.3,980 756.7,858.7 643.3,858.7 598.7,980 643.3,980 756.7,980 	"/>
	<polygon id="XMLID_265_" class="st6" points="495.7,858.7 382.3,858.7 206.1,980 415.6,980 	"/>
	<polygon id="XMLID_266_" class="st6" points="1400,980 1400,883.4 1278.7,858.7 1165.4,858.7 1374.2,980 	"/>
	<polygon id="XMLID_267_" class="st6" points="904.3,858.7 984.4,980 1193.9,980 1017.7,858.7 	"/>
	<polygon id="XMLID_243_" class="st7" points="382.3,858.7 355.2,877.3 483.3,877.3 495.7,858.7 	"/>
	<polygon id="XMLID_246_" class="st7" points="234.6,858.7 121.3,858.7 29.7,877.3 202.5,877.3 	"/>
	<polygon id="XMLID_247_" class="st7" points="643.3,858.7 636.5,877.3 763.5,877.3 756.7,858.7 	"/>
	<polygon id="XMLID_248_" class="st7" points="1017.7,858.7 904.3,858.7 916.7,877.3 1044.8,877.3 	"/>
	<polygon id="XMLID_258_" class="st7" points="1278.7,858.7 1165.4,858.7 1197.5,877.3 1370.3,877.3 	"/>
	<path id="XMLID_235_" class="st3" d="M910.9,842.9l-57.6-392.2c-11,0.4-22.1,0.7-33.2,1l57.4,391.2H910.9z"/>
	<path id="XMLID_236_" class="st3" d="M546.7,450.7l-57.6,392.2h33.3l57.4-391.2C568.8,451.5,557.7,451.1,546.7,450.7z"/>
	<circle id="XMLID_441_" class="st8" cx="82.8" cy="450.2" r="12.3"/>
	<path id="XMLID_442_" class="st8" d="M410.3,559.5c0-6.8-5.5-12.3-12.3-12.3s-12.3,5.5-12.3,12.3s5.5,12.3,12.3,12.3
		S410.3,566.3,410.3,559.5z"/>
	<circle id="XMLID_443_" class="st8" cx="414.6" cy="587.3" r="12.3"/>
	<circle id="XMLID_444_" class="st8" cx="402.2" cy="727.1" r="12.3"/>
	<circle id="XMLID_445_" class="st8" cx="401.6" cy="691.9" r="12.3"/>
	<circle id="XMLID_446_" class="st8" cx="409.4" cy="798.4" r="12.3"/>
	<circle id="XMLID_447_" class="st8" cx="391.8" cy="763.6" r="12.3"/>
	<path id="XMLID_448_" class="st8" d="M827.6,718.7c-6.8,0-12.3,5.5-12.3,12.3s5.5,12.3,12.3,12.3s12.3-5.5,12.3-12.3
		C839.9,724.2,834.4,718.7,827.6,718.7z"/>
	<circle id="XMLID_449_" class="st8" cx="841.8" cy="801" r="12.3"/>
	<circle id="XMLID_450_" class="st8" cx="401.2" cy="490.3" r="12.3"/>
	<path id="XMLID_451_" class="st8" d="M384.2,522.6c0,6.8,5.5,12.3,12.3,12.3s12.3-5.5,12.3-12.3s-5.5-12.3-12.3-12.3
		S384.2,515.8,384.2,522.6z"/>
	<circle id="XMLID_452_" class="st8" cx="480.9" cy="513.5" r="12.3"/>
	<circle id="XMLID_453_" class="st8" cx="32.1" cy="439.5" r="12.3"/>
	<circle id="XMLID_454_" class="st8" cx="469.6" cy="584.8" r="12.3"/>
	<circle id="XMLID_455_" class="st8" cx="49.7" cy="479.9" r="12.3"/>
	
		<ellipse id="XMLID_456_" transform="matrix(3.327792e-02 -0.9994 0.9994 3.327792e-02 -443.9245 569.4484)" class="st8" cx="72.4" cy="514.2" rx="12.3" ry="12.3"/>
	<circle id="XMLID_457_" class="st8" cx="448.9" cy="762.3" r="12.3"/>
	<path id="XMLID_458_" class="st8" d="M465.7,813.7c6.8,0,12.3-5.5,12.3-12.3s-5.5-12.3-12.3-12.3s-12.3,5.5-12.3,12.3
		C453.4,808.2,458.9,813.7,465.7,813.7z"/>
	<path id="XMLID_459_" class="st8" d="M455.9,523.6c-6.8,0-12.3,5.5-12.3,12.3s5.5,12.3,12.3,12.3s12.3-5.5,12.3-12.3
		C468.2,529.2,462.7,523.6,455.9,523.6z"/>
	<circle id="XMLID_460_" class="st8" cx="457" cy="719.4" r="12.3"/>
	<circle id="XMLID_461_" class="st8" cx="457.8" cy="686.8" r="12.3"/>
	<path id="XMLID_462_" class="st8" d="M441,553c-6.8,0-12.3,5.5-12.3,12.3s5.5,12.3,12.3,12.3s12.3-5.5,12.3-12.3S447.8,553,441,553
		z"/>
	<path id="XMLID_463_" class="st8" d="M438.9,494.7c-6.8,0-12.3,5.5-12.3,12.3s5.5,12.3,12.3,12.3s12.3-5.5,12.3-12.3
		C451.2,500.2,445.7,494.7,438.9,494.7z"/>
	<circle id="XMLID_464_" class="st8" cx="761" cy="538.2" r="12.3"/>
	<circle id="XMLID_465_" class="st8" cx="746.9" cy="579.9" r="12.3"/>
	<circle id="XMLID_466_" class="st8" cx="766.2" cy="503" r="12.3"/>
	<circle id="XMLID_467_" class="st8" cx="787.7" cy="579.5" r="12.3"/>
	<circle id="XMLID_468_" class="st8" cx="800.5" cy="503" r="12.3"/>
	<path id="XMLID_469_" class="st8" d="M725,490.7c-6.8,0-12.3,5.5-12.3,12.3s5.5,12.3,12.3,12.3s12.3-5.5,12.3-12.3
		S731.8,490.7,725,490.7z"/>
	<circle id="XMLID_470_" class="st8" cx="682.5" cy="690.6" r="12.3"/>
	<circle id="XMLID_471_" class="st8" cx="664.5" cy="798.8" r="12.3"/>
	<path id="XMLID_472_" class="st8" d="M700.7,538.7c0,6.8,5.5,12.3,12.3,12.3s12.3-5.5,12.3-12.3s-5.5-12.3-12.3-12.3
		S700.7,531.9,700.7,538.7z"/>
	<path id="XMLID_473_" class="st8" d="M649.9,781.5c6.8,0,12.3-5.5,12.3-12.3s-5.5-12.3-12.3-12.3s-12.3,5.5-12.3,12.3
		C637.6,776,643.1,781.5,649.9,781.5z"/>
	<path id="XMLID_474_" class="st8" d="M649.7,728.9c0-6.8-5.5-12.3-12.3-12.3s-12.3,5.5-12.3,12.3s5.5,12.3,12.3,12.3
		S649.7,735.6,649.7,728.9z"/>
	<path id="XMLID_475_" class="st8" d="M822.4,592.9c-6.8,0-12.3,5.5-12.3,12.3s5.5,12.3,12.3,12.3s12.3-5.5,12.3-12.3
		S829.2,592.9,822.4,592.9z"/>
	<circle id="XMLID_476_" class="st8" cx="744.7" cy="689.8" r="12.3"/>
	<circle id="XMLID_477_" class="st8" cx="726.3" cy="800.1" r="12.3"/>
	<path id="XMLID_478_" class="st8" d="M807,525.5c-6.8,0-12.3,5.5-12.3,12.3s5.5,12.3,12.3,12.3s12.3-5.5,12.3-12.3
		S813.8,525.5,807,525.5z"/>
	<circle id="XMLID_479_" class="st8" cx="724.6" cy="606.9" r="12.3"/>
	<circle id="XMLID_480_" class="st8" cx="737" cy="765.3" r="12.3"/>
	<circle id="XMLID_481_" class="st8" cx="824.1" cy="688.9" r="12.3"/>
	<path id="XMLID_482_" class="st8" d="M786.8,701.7c6.8,0,12.3-5.5,12.3-12.3s-5.5-12.3-12.3-12.3s-12.3,5.5-12.3,12.3
		S780,701.7,786.8,701.7z"/>
	<path id="XMLID_483_" class="st8" d="M810.3,761c0-6.8-5.5-12.3-12.3-12.3s-12.3,5.5-12.3,12.3s5.5,12.3,12.3,12.3
		C804.8,773.4,810.3,767.8,810.3,761z"/>
	<path id="XMLID_484_" class="st8" d="M783.4,814.6c6.8,0,12.3-5.5,12.3-12.3s-5.5-12.3-12.3-12.3s-12.3,5.5-12.3,12.3
		C771.1,809.1,776.6,814.6,783.4,814.6z"/>
	<path id="XMLID_485_" class="st8" d="M761,745.4c6.8,0,12.3-5.5,12.3-12.3s-5.5-12.3-12.3-12.3s-12.3,5.5-12.3,12.3
		S754.2,745.4,761,745.4z"/>
	<circle id="XMLID_486_" class="st8" cx="322.2" cy="699.7" r="12.3"/>
	<circle id="XMLID_487_" class="st8" cx="256.9" cy="666.6" r="12.3"/>
	<circle id="XMLID_488_" class="st8" cx="302.4" cy="663.6" r="12.3"/>
	<circle id="XMLID_489_" class="st8" cx="268.9" cy="736.1" r="12.3"/>
	<path id="XMLID_490_" class="st8" d="M299.8,783.7c6.8,0,12.3-5.5,12.3-12.3s-5.5-12.3-12.3-12.3s-12.3,5.5-12.3,12.3
		C287.5,778.1,293,783.7,299.8,783.7z"/>
	<circle id="XMLID_491_" class="st8" cx="289.5" cy="703.1" r="12.3"/>
	<circle id="XMLID_492_" class="st8" cx="315.8" cy="570.3" r="12.3"/>
	<circle id="XMLID_493_" class="st8" cx="277.8" cy="553" r="12.3"/>
	<circle id="XMLID_494_" class="st8" cx="279" cy="521.3" r="12.3"/>
	<circle id="XMLID_495_" class="st8" cx="306.1" cy="534.1" r="12.3"/>
	<circle id="XMLID_496_" class="st8" cx="691.9" cy="770.5" r="12.3"/>
	<path id="XMLID_497_" class="st8" d="M317.6,488.2c-6.8,0-12.3,5.5-12.3,12.3s5.5,12.3,12.3,12.3s12.3-5.5,12.3-12.3
		S324.4,488.2,317.6,488.2z"/>
	<path id="XMLID_498_" class="st8" d="M323.6,820.6c6.8,0,12.3-5.5,12.3-12.3s-5.5-12.3-12.3-12.3s-12.3,5.5-12.3,12.3
		C311.3,815.1,316.8,820.6,323.6,820.6z"/>
	<path id="XMLID_499_" class="st8" d="M358.5,491.8c-6.8,0-12.3,5.5-12.3,12.3s5.5,12.3,12.3,12.3s12.3-5.5,12.3-12.3
		S365.3,491.8,358.5,491.8z"/>
	<circle id="XMLID_500_" class="st8" cx="83.6" cy="562.7" r="12.3"/>
	<path id="XMLID_501_" class="st8" d="M356.7,566.3c-6.8,0-12.3,5.5-12.3,12.3s5.5,12.3,12.3,12.3s12.3-5.5,12.3-12.3
		C369,571.9,363.5,566.3,356.7,566.3z"/>
	<path id="XMLID_502_" class="st8" d="M283.3,507c6.8,0,12.3-5.5,12.3-12.3s-5.5-12.3-12.3-12.3s-12.3,5.5-12.3,12.3
		S276.5,507,283.3,507z"/>
	<circle id="XMLID_503_" class="st8" cx="361.7" cy="710.8" r="12.3"/>
	<circle id="XMLID_504_" class="st8" cx="223.9" cy="522.9" r="12.3"/>
	<circle id="XMLID_505_" class="st8" cx="339.3" cy="736.1" r="12.3"/>
	<circle id="XMLID_506_" class="st8" cx="242" cy="566.7" r="12.3"/>
	<circle id="XMLID_507_" class="st8" cx="350.5" cy="672.6" r="12.3"/>
	<path id="XMLID_508_" class="st8" d="M338.6,541.7c0,6.8,5.5,12.3,12.3,12.3s12.3-5.5,12.3-12.3s-5.5-12.3-12.3-12.3
		S338.6,534.9,338.6,541.7z"/>
	<circle id="XMLID_509_" class="st8" cx="355.4" cy="771.8" r="12.3"/>
	<path id="XMLID_510_" class="st8" d="M64.7,763.3c-6.8,0-12.3,5.5-12.3,12.3s5.5,12.3,12.3,12.3S77,782.4,77,775.6
		C77,768.8,71.5,763.3,64.7,763.3z"/>
	
		<ellipse id="XMLID_511_" transform="matrix(3.327792e-02 -0.9994 0.9994 3.327792e-02 -670.5763 775.5244)" class="st8" cx="65.6" cy="734.4" rx="12.3" ry="12.3"/>
	
		<ellipse id="XMLID_512_" transform="matrix(3.327792e-02 -0.9994 0.9994 3.327792e-02 -582.0218 701.4764)" class="st8" cx="71.6" cy="651.6" rx="12.3" ry="12.3"/>
	<circle id="XMLID_513_" class="st8" cx="39" cy="692.8" r="12.3"/>
	<circle id="XMLID_514_" class="st8" cx="49.3" cy="542.5" r="12.3"/>
	<path id="XMLID_515_" class="st8" d="M108.9,787.9c6.8,0,12.3-5.5,12.3-12.3s-5.5-12.3-12.3-12.3s-12.3,5.5-12.3,12.3
		S102.1,787.9,108.9,787.9z"/>
	<circle id="XMLID_516_" class="st8" cx="89.6" cy="695.4" r="12.3"/>
	<circle id="XMLID_517_" class="st8" cx="108.9" cy="485.9" r="12.3"/>
	<path id="XMLID_518_" class="st8" d="M103.5,543.8c0,6.8,5.5,12.3,12.3,12.3s12.3-5.5,12.3-12.3s-5.5-12.3-12.3-12.3
		S103.5,537,103.5,543.8z"/>
	
		<ellipse id="XMLID_519_" transform="matrix(0.9999 -1.020248e-02 1.020248e-02 0.9999 -7.4914 0.3004)" class="st8" cx="25.7" cy="734.4" rx="12.3" ry="12.3"/>
	<circle id="XMLID_520_" class="st8" cx="116.2" cy="666.2" r="12.3"/>
	<path id="XMLID_521_" class="st8" d="M212.7,494.7c0,6.8,5.5,12.3,12.3,12.3s12.3-5.5,12.3-12.3s-5.5-12.3-12.3-12.3
		C218.2,482.4,212.7,487.9,212.7,494.7z"/>
	<circle id="XMLID_522_" class="st8" cx="205.8" cy="469" r="12.3"/>
	<circle id="XMLID_523_" class="st8" cx="170.3" cy="738.3" r="12.3"/>
	<path id="XMLID_524_" class="st8" d="M161.3,765.9c-6.8,0-12.3,5.5-12.3,12.3s5.5,12.3,12.3,12.3s12.3-5.5,12.3-12.3
		S168.1,765.9,161.3,765.9z"/>
	
		<ellipse id="XMLID_525_" transform="matrix(9.853780e-02 -0.9951 0.9951 9.853780e-02 -270.4076 701.6944)" class="st8" cx="252.1" cy="500.1" rx="12.3" ry="12.3"/>
	<circle id="XMLID_526_" class="st8" cx="247.8" cy="539.6" r="12.3"/>
	<circle id="XMLID_527_" class="st8" cx="154.9" cy="695.8" r="12.3"/>
	
		<ellipse id="XMLID_528_" transform="matrix(0.9999 -1.020248e-02 1.020248e-02 0.9999 -7.9078 0.2628)" class="st8" cx="21.8" cy="775.2" rx="12.3" ry="12.3"/>
	<path id="XMLID_529_" class="st8" d="M35.8,512.5c0-6.8-5.5-12.3-12.3-12.3s-12.3,5.5-12.3,12.3s5.5,12.3,12.3,12.3
		S35.8,519.3,35.8,512.5z"/>
	
		<ellipse id="XMLID_530_" transform="matrix(0.9999 -1.020248e-02 1.020248e-02 0.9999 -6.6467 0.2737)" class="st8" cx="23.5" cy="651.6" rx="12.3" ry="12.3"/>
	
		<ellipse id="XMLID_531_" transform="matrix(0.9951 -9.853759e-02 9.853759e-02 0.9951 -71.5931 15.8239)" class="st8" cx="124.4" cy="732.7" rx="12.3" ry="12.3"/>
	<path id="XMLID_532_" class="st8" d="M962.2,709.5c0-6.8-5.5-12.3-12.3-12.3s-12.3,5.5-12.3,12.3s5.5,12.3,12.3,12.3
		S962.2,716.3,962.2,709.5z"/>
	<path id="XMLID_533_" class="st8" d="M963.7,591.6c0,6.8,5.5,12.3,12.3,12.3s12.3-5.5,12.3-12.3s-5.5-12.3-12.3-12.3
		S963.7,584.8,963.7,591.6z"/>
	<circle id="XMLID_534_" class="st8" cx="951.7" cy="511.3" r="12.3"/>
	
		<ellipse id="XMLID_535_" transform="matrix(0.1602 -0.9871 0.9871 0.1602 186.7987 1570.7554)" class="st8" cx="1016.5" cy="675.6" rx="12.3" ry="12.3"/>
	<path id="XMLID_536_" class="st8" d="M994.1,514.5c-6.8,0-12.3,5.5-12.3,12.3s5.5,12.3,12.3,12.3s12.3-5.5,12.3-12.3
		C1006.4,520.1,1000.9,514.5,994.1,514.5z"/>
	<path id="XMLID_537_" class="st8" d="M922.4,540.2c0,6.8,5.5,12.3,12.3,12.3S947,547,947,540.2s-5.5-12.3-12.3-12.3
		S922.4,533.4,922.4,540.2z"/>
	<circle id="XMLID_538_" class="st8" cx="989.4" cy="494.6" r="12.3"/>
	<circle id="XMLID_539_" class="st8" cx="921" cy="589.1" r="12.3"/>
	<circle id="XMLID_540_" class="st8" cx="1268" cy="732.7" r="12.3"/>
	<path id="XMLID_541_" class="st8" d="M1294.2,575.5c6.8,0,12.3-5.5,12.3-12.3s-5.5-12.3-12.3-12.3s-12.3,5.5-12.3,12.3
		C1281.9,569.9,1287.4,575.5,1294.2,575.5z"/>
	<path id="XMLID_542_" class="st8" d="M909.7,505.5c-6.8,0-12.3,5.5-12.3,12.3s5.5,12.3,12.3,12.3s12.3-5.5,12.3-12.3
		C922.1,511,916.5,505.5,909.7,505.5z"/>
	<circle id="XMLID_543_" class="st8" cx="1276.2" cy="666.2" r="12.3"/>
	<path id="XMLID_544_" class="st8" d="M1107.3,486.7c-6.8,0-12.3,5.5-12.3,12.3s5.5,12.3,12.3,12.3s12.3-5.5,12.3-12.3
		C1119.6,492.2,1114.1,486.7,1107.3,486.7z"/>
	<path id="XMLID_545_" class="st8" d="M1112.8,544.9c-6.8,0-12.3,5.5-12.3,12.3s5.5,12.3,12.3,12.3s12.3-5.5,12.3-12.3
		C1125.1,550.5,1119.6,544.9,1112.8,544.9z"/>
	<path id="XMLID_546_" class="st8" d="M1283.5,787.9c6.8,0,12.3-5.5,12.3-12.3s-5.5-12.3-12.3-12.3s-12.3,5.5-12.3,12.3
		S1276.7,787.9,1283.5,787.9z"/>
	<path id="XMLID_547_" class="st8" d="M1111.6,513.3c-6.8,0-12.3,5.5-12.3,12.3s5.5,12.3,12.3,12.3s12.3-5.5,12.3-12.3
		S1118.4,513.3,1111.6,513.3z"/>
	<path id="XMLID_548_" class="st8" d="M1094.5,740c0-6.8-5.5-12.3-12.3-12.3s-12.3,5.5-12.3,12.3s5.5,12.3,12.3,12.3
		S1094.5,746.8,1094.5,740z"/>
	
		<ellipse id="XMLID_549_" transform="matrix(0.2898 -0.9571 0.9571 0.2898 246.428 1348.8882)" class="st8" cx="1032.1" cy="508.4" rx="12.3" ry="12.3"/>
	<circle id="XMLID_550_" class="st8" cx="1100.2" cy="807.8" r="12.3"/>
	<path id="XMLID_551_" class="st8" d="M1043.7,671.8c0,6.8,5.5,12.3,12.3,12.3s12.3-5.5,12.3-12.3s-5.5-12.3-12.3-12.3
		S1043.7,665,1043.7,671.8z"/>
	<circle id="XMLID_552_" class="st8" cx="1084.5" cy="538.4" r="12.3"/>
	<circle id="XMLID_553_" class="st8" cx="1039.7" cy="546" r="12.3"/>
	<circle id="XMLID_554_" class="st8" cx="1073" cy="504.8" r="12.3"/>
	<circle id="XMLID_555_" class="st8" cx="1350.9" cy="449.4" r="12.3"/>
	<circle id="XMLID_556_" class="st8" cx="1320.4" cy="525.8" r="12.3"/>
	<circle id="XMLID_557_" class="st8" cx="1302.8" cy="695.4" r="12.3"/>
	<path id="XMLID_558_" class="st8" d="M1069.7,789.7c6.8,0,12.3-5.5,12.3-12.3s-5.5-12.3-12.3-12.3s-12.3,5.5-12.3,12.3
		C1057.4,784.2,1062.9,789.7,1069.7,789.7z"/>
	<circle id="XMLID_559_" class="st8" cx="1339.7" cy="485" r="12.3"/>
	<circle id="XMLID_560_" class="st8" cx="1293.8" cy="489.7" r="12.3"/>
	<path id="XMLID_561_" class="st8" d="M1209.8,738.3c0,6.8,5.5,12.3,12.3,12.3s12.3-5.5,12.3-12.3s-5.5-12.3-12.3-12.3
		S1209.8,731.5,1209.8,738.3z"/>
	<path id="XMLID_562_" class="st8" d="M1352.8,525.8c0,6.8,5.5,12.3,12.3,12.3s12.3-5.5,12.3-12.3s-5.5-12.3-12.3-12.3
		S1352.8,519,1352.8,525.8z"/>
	<circle id="XMLID_563_" class="st8" cx="1282.6" cy="531.8" r="12.3"/>
	<path id="XMLID_564_" class="st8" d="M1218.8,778.2c0,6.8,5.5,12.3,12.3,12.3s12.3-5.5,12.3-12.3s-5.5-12.3-12.3-12.3
		S1218.8,771.4,1218.8,778.2z"/>
	<circle id="XMLID_565_" class="st8" cx="1237.6" cy="695.8" r="12.3"/>
	<circle id="XMLID_566_" class="st8" cx="1260.7" cy="574.7" r="12.3"/>
	<circle id="XMLID_567_" class="st8" cx="1309.3" cy="455.3" r="12.3"/>
	<path id="XMLID_568_" class="st8" d="M1353.5,705.1c6.8,0,12.3-5.5,12.3-12.3s-5.5-12.3-12.3-12.3s-12.3,5.5-12.3,12.3
		S1346.7,705.1,1353.5,705.1z"/>
	<path id="XMLID_569_" class="st8" d="M1327.7,787.9c6.8,0,12.3-5.5,12.3-12.3s-5.5-12.3-12.3-12.3s-12.3,5.5-12.3,12.3
		C1315.4,782.4,1320.9,787.9,1327.7,787.9z"/>
	<path id="XMLID_570_" class="st8" d="M1355,556.7c0-6.8-5.5-12.3-12.3-12.3s-12.3,5.5-12.3,12.3s5.5,12.3,12.3,12.3
		S1355,563.5,1355,556.7z"/>
	<path id="XMLID_571_" class="st8" d="M1326.9,746.7c6.8,0,12.3-5.5,12.3-12.3s-5.5-12.3-12.3-12.3s-12.3,5.5-12.3,12.3
		S1320.1,746.7,1326.9,746.7z"/>
	<circle id="XMLID_572_" class="st8" cx="1320.8" cy="651.6" r="12.3"/>
	<circle id="XMLID_573_" class="st8" cx="1366.8" cy="734.4" r="12.3"/>
	<circle id="XMLID_574_" class="st8" cx="1380.5" cy="555" r="12.3"/>
	<circle id="XMLID_575_" class="st8" cx="1370.6" cy="775.2" r="12.3"/>
	<circle id="XMLID_576_" class="st8" cx="1368.9" cy="651.6" r="12.3"/>
	<circle id="XMLID_577_" class="st8" cx="1380.9" cy="485" r="12.3"/>
	<path id="XMLID_578_" class="st8" d="M1138.5,492.1c-6.8,0-12.3,5.5-12.3,12.3s5.5,12.3,12.3,12.3s12.3-5.5,12.3-12.3
		C1150.8,497.6,1145.3,492.1,1138.5,492.1z"/>
	<path id="XMLID_579_" class="st8" d="M565.4,687.2c0,6.8,5.5,12.3,12.3,12.3S590,694,590,687.2s-5.5-12.3-12.3-12.3
		S565.4,680.4,565.4,687.2z"/>
	<circle id="XMLID_580_" class="st8" cx="592.3" cy="573.4" r="12.3"/>
	<path id="XMLID_581_" class="st8" d="M602.2,482.2c-6.8,0-12.3,5.5-12.3,12.3s5.5,12.3,12.3,12.3s12.3-5.5,12.3-12.3
		S609,482.2,602.2,482.2z"/>
	<circle id="XMLID_582_" class="st8" cx="560.1" cy="765.8" r="12.3"/>
	<path id="XMLID_583_" class="st8" d="M599.2,546.7c6.8,0,12.3-5.5,12.3-12.3s-5.5-12.3-12.3-12.3s-12.3,5.5-12.3,12.3
		S592.4,546.7,599.2,546.7z"/>
	<circle id="XMLID_584_" class="st8" cx="562.3" cy="801" r="12.3"/>
	<circle id="XMLID_585_" class="st8" cx="1166.7" cy="527.2" r="12.3"/>
	<circle id="XMLID_586_" class="st8" cx="1148.6" cy="571" r="12.3"/>
	<circle id="XMLID_587_" class="st8" cx="1141.8" cy="663.2" r="12.3"/>
	<circle id="XMLID_588_" class="st8" cx="1142.7" cy="700.5" r="12.3"/>
	<circle id="XMLID_589_" class="st8" cx="1074.8" cy="574.6" r="12.3"/>
	<circle id="XMLID_590_" class="st8" cx="603.9" cy="768.3" r="12.3"/>
	<path id="XMLID_591_" class="st8" d="M653,532.7c0,6.8,5.5,12.3,12.3,12.3s12.3-5.5,12.3-12.3s-5.5-12.3-12.3-12.3
		S653,525.9,653,532.7z"/>
	<circle id="XMLID_592_" class="st8" cx="634.4" cy="502.6" r="12.3"/>
	<path id="XMLID_593_" class="st8" d="M646.6,602.6c0,6.8,5.5,12.3,12.3,12.3s12.3-5.5,12.3-12.3s-5.5-12.3-12.3-12.3
		S646.6,595.8,646.6,602.6z"/>
	<circle id="XMLID_594_" class="st8" cx="694.9" cy="581.2" r="12.3"/>
	<path id="XMLID_595_" class="st8" d="M679.1,486.4c-6.8,0-12.3,5.5-12.3,12.3s5.5,12.3,12.3,12.3s12.3-5.5,12.3-12.3
		C691.4,492,685.8,486.4,679.1,486.4z"/>
	<circle id="XMLID_596_" class="st8" cx="626.2" cy="685.9" r="12.3"/>
	<circle id="XMLID_597_" class="st8" cx="597.5" cy="728.9" r="12.3"/>
	<circle id="XMLID_598_" class="st8" cx="632.7" cy="568.3" r="12.3"/>
	<circle id="XMLID_599_" class="st8" cx="600.5" cy="603.5" r="12.3"/>
	<circle id="XMLID_600_" class="st8" cx="1165.6" cy="499" r="12.3"/>
	<circle id="XMLID_601_" class="st8" cx="611.2" cy="800.5" r="12.3"/>
	<circle id="XMLID_602_" class="st8" cx="992.6" cy="563.8" r="12.3"/>
	<path id="XMLID_603_" class="st8" d="M1021.2,789.7c6.8,0,12.3-5.5,12.3-12.3s-5.5-12.3-12.3-12.3s-12.3,5.5-12.3,12.3
		S1014.4,789.7,1021.2,789.7z"/>
	<path id="XMLID_604_" class="st8" d="M1017.2,705.7c0-6.8-5.5-12.3-12.3-12.3s-12.3,5.5-12.3,12.3s5.5,12.3,12.3,12.3
		S1017.2,712.5,1017.2,705.7z"/>
	<circle id="XMLID_605_" class="st8" cx="987.3" cy="807" r="12.3"/>
	<path id="XMLID_606_" class="st8" d="M1184.8,485.6c6.8,0,12.3-5.5,12.3-12.3s-5.5-12.3-12.3-12.3s-12.3,5.5-12.3,12.3
		S1178,485.6,1184.8,485.6z"/>
	<circle id="XMLID_607_" class="st8" cx="1044.8" cy="807" r="12.3"/>
	<circle id="XMLID_608_" class="st8" cx="1098.9" cy="664" r="12.3"/>
	<path id="XMLID_609_" class="st8" d="M1090.9,700.9c0,6.8,5.5,12.3,12.3,12.3s12.3-5.5,12.3-12.3s-5.5-12.3-12.3-12.3
		C1096.4,688.6,1090.9,694.2,1090.9,700.9z"/>
	<circle id="XMLID_610_" class="st8" cx="1058.1" cy="704.8" r="12.3"/>
	<circle id="XMLID_611_" class="st8" cx="978.3" cy="740.4" r="12.3"/>
	
		<ellipse id="XMLID_612_" transform="matrix(0.1602 -0.9871 0.9871 0.1602 292.9145 1510.0797)" class="st8" cx="1033.9" cy="582.9" rx="12.3" ry="12.3"/>
	<circle id="XMLID_613_" class="st8" cx="1038.4" cy="740.4" r="12.3"/>
	<circle id="XMLID_614_" class="st8" cx="1137.5" cy="736.6" r="12.3"/>
	<circle id="XMLID_615_" class="st8" cx="958.1" cy="777.4" r="12.3"/>
	<path id="XMLID_616_" class="st8" d="M923.3,750.2c6.8,0,12.3-5.5,12.3-12.3s-5.5-12.3-12.3-12.3s-12.3,5.5-12.3,12.3
		S916.5,750.2,923.3,750.2z"/>
	<path id="XMLID_617_" class="st8" d="M1142.8,531.6c-6.8,0-12.3,5.5-12.3,12.3s5.5,12.3,12.3,12.3s12.3-5.5,12.3-12.3
		C1155.1,537.1,1149.6,531.6,1142.8,531.6z"/>
	<circle id="XMLID_618_" class="st8" cx="697.5" cy="734.4" r="12.3"/>
	<path id="XMLID_619_" class="st8" d="M1108.5,776.9c0,6.8,5.5,12.3,12.3,12.3s12.3-5.5,12.3-12.3s-5.5-12.3-12.3-12.3
		C1114,764.6,1108.5,770.1,1108.5,776.9z"/>
	<circle id="XMLID_620_" class="st8" cx="949.6" cy="569.6" r="12.3"/>
	<circle id="XMLID_621_" class="st8" cx="919.5" cy="681.1" r="12.3"/>
	<path id="XMLID_622_" class="st8" d="M953.5,678.2c0,6.8,5.5,12.3,12.3,12.3s12.3-5.5,12.3-12.3s-5.5-12.3-12.3-12.3
		S953.5,671.4,953.5,678.2z"/>
	<circle id="XMLID_623_" class="st8" cx="932.3" cy="807" r="12.3"/>
</g>
</svg>
